<svg height="511pt" viewBox="-35 0 511 511.99631" width="511pt" xmlns="http://www.w3.org/2000/svg"><path d="m400.695312 315.375h-172.277343v-124.453125h172.277343c17.894532 0 32.398438 14.503906 32.398438 32.398437v59.65625c.003906 17.894532-14.503906 32.398438-32.398438 32.398438zm0 0" fill="#ffcbbe"/><path d="m228.417969 315.375h118.539062c-.207031-58.417969-16.171875-100.019531-29.367187-124.453125h-89.171875zm0 0" fill="#ffb39d"/><path d="m283.179688 199.875v106.546875c0 27.460937-22.261719 49.722656-49.722657 49.722656h-142.453125v-205.992187h142.457032c27.457031 0 49.71875 22.261718 49.71875 49.722656zm0 0" fill="#ffcbbe"/><path d="m89.765625 127.898438h100.824219v285.820312h-100.824219zm0 0" fill="#516980"/><path d="m179.910156 21.726562v41.429688l-39.707031 28.507812-39.707031-28.507812v-41.429688c0-13.023437-16.144532-19.210937-24.753906-9.4375-13.78125 15.640626-28.1875 41.136719-28.1875 79.375 0 73.304688 92.648437 73.28125 92.648437 73.28125s92.648437.023438 92.648437-73.28125c0-38.238281-14.40625-63.734374-28.1875-79.375-8.609374-9.773437-24.753906-3.585937-24.753906 9.4375zm0 0" fill="#889cb0"/><path d="m179.910156 490.277344v-41.433594l-39.707031-28.503906-39.707031 28.503906v41.433594c0 13.023437-16.144532 19.207031-24.753906 9.4375-13.78125-15.644532-28.1875-41.136719-28.1875-79.375 0-73.308594 92.648437-73.285156 92.648437-73.285156s92.648437-.023438 92.648437 73.285156c0 38.238281-14.40625 63.730468-28.1875 79.375-8.609374 9.769531-24.753906 3.585937-24.753906-9.4375zm0 0" fill="#889cb0"/><path d="m124.890625 204.375h-89.78125c-14.972656 0-27.109375-12.140625-27.109375-27.113281 0-14.972657 12.136719-27.109375 27.109375-27.109375h89.78125c14.972656 0 27.113281 12.136718 27.113281 27.109375 0 14.976562-12.140625 27.113281-27.113281 27.113281zm0 0" fill="#ffcbbe"/><path d="m124.890625 258.597656h-89.78125c-14.972656 0-27.109375-12.140625-27.109375-27.113281s12.136719-27.109375 27.109375-27.109375h89.78125c14.972656 0 27.113281 12.136719 27.113281 27.109375s-12.140625 27.113281-27.113281 27.113281zm0 0" fill="#ffddcf"/><path d="m124.890625 312.820312h-89.78125c-14.972656 0-27.109375-12.140624-27.109375-27.113281 0-14.972656 12.136719-27.109375 27.109375-27.109375h89.78125c14.972656 0 27.113281 12.136719 27.113281 27.109375 0 14.972657-12.140625 27.113281-27.113281 27.113281zm0 0" fill="#ffcbbe"/><path d="m106.578125 367.042969h-71.46875c-14.972656 0-27.109375-12.140625-27.109375-27.113281 0-14.972657 12.136719-27.109376 27.109375-27.109376h71.46875c14.972656 0 27.109375 12.136719 27.109375 27.109376.003906 14.972656-12.136719 27.113281-27.109375 27.113281zm0 0" fill="#ffddcf"/><path d="m107.449219 162.984375c13.09375 11.179687 32.425781 22.03125 60.890625 28.75 12.363281 2.917969 21.65625 12.128906 27.273437 23.527344 23.15625 46.976562 57.273438 50.359375 87.566407 52.234375v-67.621094c0-80.023438-159.574219-72.25-159.574219-72.25-19.980469-2.824219-31.503907 22.253906-16.15625 35.359375zm0 0" fill="#ffddcf"/><path d="m400.695312 183.421875h-112.214843c-9.726563-29.515625-43.210938-45.492187-59.679688-50.84375 7.660157-11.574219 11.550781-25.28125 11.550781-40.914063 0-41.507812-16.347656-68.769531-30.0625-84.335937-5.984374-6.792969-15.339843-9.113281-23.832031-5.90625-8.535156 3.226563-14.046875 11.195313-14.046875 20.304687v37.582032l-32.207031 23.121094-32.207031-23.121094v-37.582032c0-9.109374-5.511719-17.078124-14.046875-20.304687-8.488281-3.207031-17.84375-.886719-23.832031 5.910156-15.417969 17.496094-25.027344 38.714844-28.566407 63.070313-.59375 4.101562 2.246094 7.90625 6.347657 8.5 4.089843.597656 7.902343-2.246094 8.5-6.34375 3.109374-21.425782 11.511718-40.035156 24.972656-55.3125 2.785156-3.160156 6.273437-2.167969 7.277344-1.789063 1.019531.382813 4.347656 1.972657 4.347656 6.265625v41.433594c0 2.414062 1.164062 4.683594 3.125 6.09375l39.707031 28.507812c2.613281 1.875 6.136719 1.875 8.75 0l39.707031-28.507812c1.960938-1.410156 3.125-3.679688 3.125-6.09375v-41.429688c0-4.292968 3.328125-5.886718 4.347656-6.269531 1.003907-.378906 4.492188-1.367187 7.277344 1.789063 12.007813 13.625 26.316406 37.59375 26.316406 74.417968 0 14.429688-4.027343 26.710938-11.953124 36.589844-40.507813-9.746094-83.109376-8.421875-89.480469-8.152344-24.246094-.050781-30.125 20.4375-30.542969 22.550782h-9.433594c-.035156-.023438-.066406-.046875-.101562-.066406-16.363282-9.757813-25.847656-23.734376-28.191406-41.546876-.539063-4.105468-4.304688-7-8.414063-6.457031-4.105469.542969-7 4.308594-6.457031 8.414063 2.058594 15.640625 8.40625 28.910156 18.914062 39.65625h-24.582031c-19.085937 0-34.609375 15.523437-34.609375 34.609375 0 10.976562 5.140625 20.765625 13.132812 27.113281-7.992187 6.34375-13.132812 16.132812-13.132812 27.109375 0 10.972656 5.140625 20.765625 13.132812 27.109375-7.992187 6.347656-13.132812 16.136719-13.132812 27.113281 0 10.972657 5.140625 20.765625 13.132812 27.109375-7.992187 6.34375-13.132812 16.136719-13.132812 27.109375 0 19.085938 15.523438 34.613281 34.609375 34.613281h19.984375c-9.988281 12.46875-15.042969 27.796876-15.042969 45.796876 0 41.503906 16.347657 68.769531 30.0625 84.332031 5.988281 6.796875 15.34375 9.113281 23.832031 5.90625 8.535157-3.222657 14.050782-11.191407 14.050782-20.300781v-37.582032l32.203125-23.125 32.207031 23.125v37.582032c0 9.109374 7.832031 21.722656 21.777344 21.722656 6.050781 0 11.90625-2.5625 16.105468-7.328125 13.710938-15.5625 30.058594-42.828125 30.058594-84.332031 0-23.589844-8.863281-42.796876-25.898437-56.695313h19.007812c31.550781 0 57.222657-25.667969 57.222657-57.222656 0 0-.027344-107.515625-.035157-108h110.050781c13.726563 0 24.898438 11.171875 24.898438 24.902343v59.652344c0 13.730469-11.171875 24.898438-24.898438 24.898438h-84.429687c-4.140625 0-7.5 3.359375-7.5 7.5 0 4.144531 3.359375 7.5 7.5 7.5h84.429687c22 0 39.898438-17.898438 39.898438-39.898438v-59.652344c.003906-22-17.898438-39.898437-39.898438-39.898437zm-291.628906-40.894531c1.921875-4.265625 6.742188-7.101563 14.90625-7.414063.988282-.039062 99.285156-4.390625 137.394532 31.90625 9.632812 9.175781 14.3125 19.921875 14.3125 32.855469v59.578125c-12.496094-1.011719-25.011719-2.011719-35.84375-7.980469-30.777344-16.972656-40.203126-44.570312-41.75-46.855468v-.242188h-.15625c-7.070313-10.339844-16.738282-17.3125-27.867188-19.941406-23.792969-5.613282-43.21875-14.75-57.742188-27.152344-5.273437-4.503906-5.140624-10.574219-3.253906-14.753906zm32.113282 197.039062c-.078126-7.695312-2.683594-14.796875-7.023438-20.519531 14.597656-4.0625 25.347656-17.464844 25.347656-33.339844 0-10.972656-5.144531-20.765625-13.132812-27.109375 7.992187-6.347656 13.132812-16.136718 13.132812-27.113281s-5.148437-20.773437-13.144531-27.117187c3.054687-2.417969 5.707031-5.347657 7.816406-8.695313 9.855469.792969 23.585938 5.914063 28.910157 13.945313v137.363281c-19.53125-6.53125-37.546876-7.320313-41.90625-7.414063zm-125.679688-162.304687c0-10.8125 8.796875-19.609375 19.609375-19.609375h59.542969c1.613281 4.128906 4.273437 7.917968 7.925781 11.039062 10.269531 8.765625 22.582031 16.046875 36.792969 21.785156-3.648438 3.980469-8.878906 6.398438-14.480469 6.398438h-89.78125c-10.8125 0-19.609375-8.796875-19.609375-19.613281zm0 54.222656c0-10.8125 8.796875-19.609375 19.609375-19.609375h89.78125c10.8125 0 19.613281 8.796875 19.613281 19.613281 0 10.8125-8.800781 19.609375-19.613281 19.609375h-89.78125c-10.8125 0-19.609375-8.800781-19.609375-19.613281zm0 54.222656c0-10.8125 8.796875-19.609375 19.609375-19.609375h89.78125c10.8125 0 19.613281 8.796875 19.613281 19.609375s-8.800781 19.613281-19.613281 19.613281h-89.78125c-10.8125 0-19.609375-8.800781-19.609375-19.613281zm0 54.222657c0-10.8125 8.796875-19.609376 19.609375-19.609376h71.46875c10.8125 0 19.609375 8.796876 19.609375 19.609376s-8.796875 19.613281-19.609375 19.613281h-71.46875c-10.8125 0-19.609375-8.800781-19.609375-19.613281zm209.851562 80.40625c0 36.824218-14.308593 60.792968-26.316406 74.417968-2.785156 3.160156-6.273437 2.171875-7.277344 1.792969-1.019531-.386719-4.347656-1.980469-4.347656-6.269531v-41.433594c0-2.417969-1.164062-4.683594-3.128906-6.09375l-39.707031-28.507812c-2.613281-1.875-6.132813-1.875-8.746094 0l-39.707031 28.507812c-1.960938 1.410156-3.125 3.675781-3.125 6.09375v41.429688c0 4.292968-3.328125 5.886718-4.351563 6.273437-1 .378906-4.488281 1.367187-7.273437-1.792969-12.007813-13.625-26.316406-37.59375-26.316406-74.417968 0-19.257813 7.164062-34.644532 21.300781-45.792969h30.222656c13.835937 0 25.792969-8.164063 31.328125-19.921875 1.464844-.0625 24.636719.074218 46.214844 8.699218 27.359375 10.933594 41.230468 30.117188 41.230468 57.015626zm8.105469-71.691407h-35.371093v-114.230469c23.015624 33.589844 53.140624 38.335938 77.59375 40.105469v31.902344c0 23.28125-18.941407 42.222656-42.222657 42.222656zm0 0"/></svg>