<?xml version="1.0" ?><svg viewBox="0 0 64 64" xmlns="http://www.w3.org/2000/svg"><title/><g data-name="Layer 6" id="Layer_6"><path d="M38.14,1.52A.57.57,0,0,0,38,1.3,7.44,7.44,0,0,0,34.14.07l0,.12a7.06,7.06,0,0,1,3.31,1.59,0,0,0,0,1,0,.05,13.41,13.41,0,0,0-10.82,0,0,0,0,0,1,0-.05A7.06,7.06,0,0,1,29.82.19l0-.12A7.44,7.44,0,0,0,26,1.3a.57.57,0,0,0-.19.22c-.35.76-2.07,4.73-1.88,8A4.89,4.89,0,0,0,28,11.71a.1.1,0,0,0,.1,0l.68-.88a.12.12,0,0,0,0-.18,8.53,8.53,0,0,1-2.59-1.93A12.05,12.05,0,0,0,32,10.51a12.05,12.05,0,0,0,5.77-1.83,8.53,8.53,0,0,1-2.59,1.93.12.12,0,0,0,0,.18l.68.88a.1.1,0,0,0,.1,0A4.89,4.89,0,0,0,40,9.56C40.21,6.25,38.49,2.28,38.14,1.52ZM29.38,8.21a1.48,1.48,0,1,1,1.48-1.48A1.48,1.48,0,0,1,29.38,8.21Zm5.09,0A1.48,1.48,0,1,1,36,6.73,1.48,1.48,0,0,1,34.47,8.21Zm-23.31-1V4.53a1,1,0,0,1,1-1h7.38a1,1,0,0,1,0,2H13.16V7.25a1,1,0,0,1-2,0Zm0,4.6v-1.7a1,1,0,0,1,2,0v1.7a1,1,0,0,1-2,0Zm.29,4.46a1,1,0,0,1-.3-.71,1,1,0,0,1,.3-.71l.15-.12a.56.56,0,0,1,.17-.09.7.7,0,0,1,.19-.06,1,1,0,0,1,1.2,1,1,1,0,0,1-1,1l-.2,0a.7.7,0,0,1-.19-.06.56.56,0,0,1-.17-.09ZM47.33,4.53a1,1,0,0,1,1-1h3.56a1,1,0,0,1,1,1V8.2a1,1,0,1,1-2,0V5.53H48.33A1,1,0,0,1,47.33,4.53Zm5.56,8.1a1,1,0,0,1-2,0V10.94a1,1,0,1,1,2,0Zm-.62,2a1.46,1.46,0,0,1,.33.22,1,1,0,0,1,.29.71,1,1,0,0,1-.08.38.9.9,0,0,1-.54.54,1,1,0,0,1-.38.08,1.05,1.05,0,0,1-.71-.29A1.15,1.15,0,0,1,51,16a1,1,0,0,1-.08-.38,1,1,0,0,1,.29-.71A1,1,0,0,1,52.27,14.67ZM42.46,4.53a1,1,0,0,1,1-1h1.92a1,1,0,0,1,0,2H43.46A1,1,0,0,1,42.46,4.53Zm-2.62.39a1,1,0,0,1-.07-.39,1,1,0,0,1,.29-.7,1,1,0,0,1,1.41,0,1,1,0,0,1,0,1.41,1,1,0,0,1-.7.29,1,1,0,0,1-.71-.29A.87.87,0,0,1,39.84,4.92Zm-18.39,0a1,1,0,0,1-.08-.39,1,1,0,0,1,.3-.7.93.93,0,0,1,.15-.13L22,3.61l.19-.06a1.28,1.28,0,0,1,.39,0l.19.06.17.09.15.13a1,1,0,0,1,.3.7,1,1,0,0,1-.08.39,1,1,0,0,1-.22.32l-.15.13-.17.09-.19,0a.62.62,0,0,1-.19,0,.65.65,0,0,1-.2,0l-.19,0-.17-.09a.93.93,0,0,1-.15-.13A.87.87,0,0,1,21.45,4.92Zm-6,18.22H9.18a3.08,3.08,0,0,0-3.06,2.8s0,.1,0,.15v7.77a5,5,0,0,0,5,5h2.11a5,5,0,0,0,5-5V26.09s0,0,0-.05,0-.06,0-.09A2.81,2.81,0,0,0,15.41,23.14Zm.81,10.72a3,3,0,0,1-3,3H11.1a3,3,0,0,1-3-3v-3h5.18a4.9,4.9,0,0,0,2.95-1Zm-12.94.06a3.25,3.25,0,0,1,0-6.5,1,1,0,0,1,1,1v4.5A1,1,0,0,1,3.28,33.92Zm1.5,2.58a1,1,0,1,1,0,2A2.5,2.5,0,0,1,2.28,36a1,1,0,0,1,2,0A.5.5,0,0,0,4.78,36.5Zm19.5-5.83A3.26,3.26,0,0,1,21,33.92a1,1,0,0,1-1-1v-4.5a1,1,0,0,1,1-1A3.25,3.25,0,0,1,24.28,30.67Zm-22-6.53c0-3.27,2.59-5.64,6.16-5.64h7.43c3.57,0,6.16,2.37,6.16,5.64a1,1,0,0,1-2,0c0-2.5-2.16-3.64-4.16-3.64H8.44c-2,0-4.16,1.14-4.16,3.64a1,1,0,0,1-2,0ZM23.16,46.57V60.15A3.86,3.86,0,0,1,19.3,64H5a3.86,3.86,0,0,1-3.85-3.85V46.57a5.77,5.77,0,0,1,5.76-5.76H17.4A5.77,5.77,0,0,1,23.16,46.57Zm32-23.43H48.91a3.08,3.08,0,0,0-3,2.8.8.8,0,0,0,0,.15v7.77a5,5,0,0,0,5,5h2.1a5,5,0,0,0,5-5V26.09s0,0,0-.05S58,26,58,26A2.81,2.81,0,0,0,55.15,23.14ZM56,33.86a3,3,0,0,1-3,3h-2.1a3,3,0,0,1-3-3v-3H53a4.88,4.88,0,0,0,3-1ZM43,33.92a3.25,3.25,0,0,1,0-6.5,1,1,0,0,1,1,1v4.5A1,1,0,0,1,43,33.92Zm21-3.25a3.25,3.25,0,0,1-3.25,3.25,1,1,0,0,1-1-1v-4.5a1,1,0,0,1,1-1A3.24,3.24,0,0,1,64,30.67ZM42,24.14c0-3.27,2.6-5.64,6.17-5.64H55.6c3.57,0,6.16,2.37,6.16,5.64a1,1,0,1,1-2,0c0-2.5-2.15-3.64-4.16-3.64H48.18c-2,0-4.17,1.14-4.17,3.64a1,1,0,1,1-2,0ZM62.89,46.57V60.15A3.86,3.86,0,0,1,59,64H44.74a3.86,3.86,0,0,1-3.85-3.85V46.57a5.77,5.77,0,0,1,5.76-5.76H57.13A5.77,5.77,0,0,1,62.89,46.57ZM44.78,36.5a1,1,0,0,1,0,2,2.5,2.5,0,0,1-2.5-2.5,1,1,0,0,1,2,0A.5.5,0,0,0,44.78,36.5Z"/></g></svg>