<?xml version="1.0" standalone="no"?><svg xmlns="http://www.w3.org/2000/svg" viewBox="0 0 1440 320"><path fill="#0099ff" fill-opacity="2e+44" d="M0,96L6.2,85.3C12.3,75,25,53,37,64C49.2,75,62,117,74,138.7C86.2,160,98,160,111,138.7C123.1,117,135,75,148,53.3C160,32,172,32,185,26.7C196.9,21,209,11,222,32C233.8,53,246,107,258,128C270.8,149,283,139,295,160C307.7,181,320,235,332,261.3C344.6,288,357,288,369,288C381.5,288,394,288,406,245.3C418.5,203,431,117,443,112C455.4,107,468,181,480,192C492.3,203,505,149,517,154.7C529.2,160,542,224,554,224C566.2,224,578,160,591,144C603.1,128,615,160,628,197.3C640,235,652,277,665,245.3C676.9,213,689,107,702,85.3C713.8,64,726,128,738,128C750.8,128,763,64,775,48C787.7,32,800,64,812,106.7C824.6,149,837,203,849,224C861.5,245,874,235,886,202.7C898.5,171,911,117,923,128C935.4,139,948,213,960,234.7C972.3,256,985,224,997,197.3C1009.2,171,1022,149,1034,128C1046.2,107,1058,85,1071,96C1083.1,107,1095,149,1108,170.7C1120,192,1132,192,1145,202.7C1156.9,213,1169,235,1182,224C1193.8,213,1206,171,1218,160C1230.8,149,1243,171,1255,186.7C1267.7,203,1280,213,1292,186.7C1304.6,160,1317,96,1329,101.3C1341.5,107,1354,181,1366,224C1378.5,267,1391,277,1403,261.3C1415.4,245,1428,203,1434,181.3L1440,160L1440,320L1433.8,320C1427.7,320,1415,320,1403,320C1390.8,320,1378,320,1366,320C1353.8,320,1342,320,1329,320C1316.9,320,1305,320,1292,320C1280,320,1268,320,1255,320C1243.1,320,1231,320,1218,320C1206.2,320,1194,320,1182,320C1169.2,320,1157,320,1145,320C1132.3,320,1120,320,1108,320C1095.4,320,1083,320,1071,320C1058.5,320,1046,320,1034,320C1021.5,320,1009,320,997,320C984.6,320,972,320,960,320C947.7,320,935,320,923,320C910.8,320,898,320,886,320C873.8,320,862,320,849,320C836.9,320,825,320,812,320C800,320,788,320,775,320C763.1,320,751,320,738,320C726.2,320,714,320,702,320C689.2,320,677,320,665,320C652.3,320,640,320,628,320C615.4,320,603,320,591,320C578.5,320,566,320,554,320C541.5,320,529,320,517,320C504.6,320,492,320,480,320C467.7,320,455,320,443,320C430.8,320,418,320,406,320C393.8,320,382,320,369,320C356.9,320,345,320,332,320C320,320,308,320,295,320C283.1,320,271,320,258,320C246.2,320,234,320,222,320C209.2,320,197,320,185,320C172.3,320,160,320,148,320C135.4,320,123,320,111,320C98.5,320,86,320,74,320C61.5,320,49,320,37,320C24.6,320,12,320,6,320L0,320Z"></path></svg>